<?xml version="1.0" encoding="UTF-8"?>
<svg xmlns="http://www.w3.org/2000/svg" version="1.1" xmlns:cc="http://creativecommons.org/ns#" xmlns:dc="http://purl.org/dc/elements/1.1/" xmlns:inkscape="http://www.inkscape.org/namespaces/inkscape" xmlns:rdf="http://www.w3.org/1999/02/22-rdf-syntax-ns#" xmlns:sodipodi="http://sodipodi.sourceforge.net/DTD/sodipodi-0.dtd" xmlns:svg="http://www.w3.org/2000/svg" viewBox="0 0 26 26">
  <defs>
    <style>
      .cls-1 {
        fill: #fff;
      }
    </style>
  </defs>
  <!-- Generator: Adobe Illustrator 28.7.1, SVG Export Plug-In . SVG Version: 1.2.0 Build 142)  -->
  <g>
    <g id="svg8" inkscape:export-filename="/home/pj/Projects/space-station-14/Resources/Textures/Interface/Nano/slider_outline.svg.96dpi.png" inkscape:export-xdpi="96" inkscape:version="0.92.4 5da689c313, 2019-01-14">
      <sodipodi:namedview id="base" bordercolor="#666666" borderopacity="1.0" inkscape:current-layer="g3446" inkscape:cx="15.376173" inkscape:cy="11.073013" inkscape:document-units="px" inkscape:guide-bbox="true" inkscape:pagecheckerboard="true" inkscape:pageopacity="0.0" inkscape:pageshadow="2" inkscape:snap-page="true" inkscape:window-height="1043" inkscape:window-maximized="1" inkscape:window-width="1920" inkscape:window-x="0" inkscape:window-y="0" inkscape:zoom="22.627417" pagecolor="#ffffff" showgrid="false" showguides="true" units="px">
        <sodipodi:guide id="guide5429" inkscape:color="rgb(0,0,255)" inkscape:label="" inkscape:locked="false" orientation="1,0" position="4.2333332,5.7880559"/>
        <sodipodi:guide id="guide5431" inkscape:color="rgb(0,0,255)" inkscape:label="" inkscape:locked="false" orientation="0,1" position="7.3198434,4.2333332"/>
      </sodipodi:namedview>
      <g id="g3446" inkscape:label="Charge Bar">
        <path id="rect1684-3-3" class="cls-1" d="M5.8,0C2.6,0,0,2.6,0,5.8v14.4C0,23.4,2.6,26,5.8,26h14.4c3.2,0,5.8-2.6,5.8-5.8V5.8C26,2.6,23.4,0,20.2,0h-4.2s-10.2,0-10.2,0ZM2,7.8c0-3.2,2.6-5.8,5.8-5.8h10.4c3.2,0,5.8,2.6,5.8,5.8v10.4c0,3.2-2.6,5.8-5.8,5.8H7.8c-3.2,0-5.8-2.6-5.8-5.8V7.8Z" inkscape:connector-curvature="0" sodipodi:nodetypes="cccccccccccccc"/>
      </g>
    </g>
  </g>
</svg>